# xmcd CD database file
#
# Track frame offsets:
#	150
#	10792
#	21769
#	34376
#	49838
#	63679
#	77473
#	95791
#	126474
#	154116
#	176640
#	203220
#	216281
#	231067
#
# Disc length: 3243 seconds
#
# Revision: 0
# Processed by: cddbd v1.5.2PL0 Copyright (c) Steve Scherf et al.
# Submitted via: CDex 1.51
#
DISCID=c30ca90e
DTITLE=LOUIS ARMSTRONG - Super Best
DYEAR=1900
DGENRE=Jazz
TTITLE0=WHAT A WONDERFUL WORLD
TTITLE1=HELLO,DOLLY!
TTITLE2=CABARET
TTITLE3=LA VIE EN ROSE
TTITLE4=C'EST SI BON
TTITLE5=A KISS TO BUILT A DREAM ON
TTITLE6=WHEN YOU'RE SMILING
TTITLE7=ON THE SUNNY SIDE OF THE STREET
TTITLE8=BASIN STREET BLUSE
TTITLE9=SUMMERTIME
TTITLE10=CHEEK TO CHEEK
TTITLE11=BLUEBERRY HILL
TTITLE12=WHEN IT'S SLLEPY DOWN SOUTH
TTITLE13=WHEN THE SAINTS GO MARCHING IN
EXTD=
EXTT0=
EXTT1=
EXTT2=
EXTT3=
EXTT4=
EXTT5=
EXTT6=
EXTT7=
EXTT8=
EXTT9=
EXTT10=
EXTT11=
EXTT12=
EXTT13=
PLAYORDER=
